<?xml version="1.0" encoding="UTF-8" standalone="no"?>
<!-- Created with Inkscape (http://www.inkscape.org/) -->

<svg
   width="512"
   height="512"
   viewBox="0 0 512 512"
   version="1.1"
   id="svg5"
   inkscape:version="1.2.2 (b0a8486541, 2022-12-01)"
   sodipodi:docname="distributor-logo-mamolinux.svg"
   xmlns:inkscape="http://www.inkscape.org/namespaces/inkscape"
   xmlns:sodipodi="http://sodipodi.sourceforge.net/DTD/sodipodi-0.dtd"
   xmlns="http://www.w3.org/2000/svg"
   xmlns:svg="http://www.w3.org/2000/svg"
   xmlns:rdf="http://www.w3.org/1999/02/22-rdf-syntax-ns#"
   xmlns:cc="http://creativecommons.org/ns#">
  <sodipodi:namedview
     id="namedview7"
     pagecolor="#ffffff"
     bordercolor="#666666"
     borderopacity="1.0"
     inkscape:showpageshadow="2"
     inkscape:pageopacity="0.0"
     inkscape:pagecheckerboard="0"
     inkscape:deskcolor="#d1d1d1"
     inkscape:document-units="px"
     showgrid="false"
     inkscape:zoom="0.67617085"
     inkscape:cx="187.82235"
     inkscape:cy="273.59949"
     inkscape:window-width="1920"
     inkscape:window-height="1020"
     inkscape:window-x="0"
     inkscape:window-y="32"
     inkscape:window-maximized="1"
     inkscape:current-layer="layer1"
     inkscape:pageshadow="2" />
  <defs
     id="defs2" />
  <g
     inkscape:label="Layer 1"
     inkscape:groupmode="layer"
     id="layer1">
    <path
       id="rect225"
       style="opacity:1;fill:#046a38;fill-opacity:1;stroke-width:1.15461"
       d="m 48,96 c -1.558067,0 -3.076954,0.160487 -4.550781,0.441406 -0.0025,4.79e-4 -0.0053,-4.79e-4 -0.0078,0 -9.623365,1.837451 -17.16255,9.376634 -19,19.000004 -4.91e-4,0.003 4.91e-4,0.005 0,0.008 C 24.160487,116.92305 24,118.44193 24,120 V 120.0215 472 c 0,13.296 10.704,24 24,24 13.296,0 24,-10.704 24,-24 V 177.94141 L 343.5918,449.5332 c 9.40169,9.40169 24.53971,9.40169 33.9414,0 9.40169,-9.40169 9.40169,-24.53971 0,-33.9414 L 65.294922,103.35352 c -2.30538,-2.39523 -5.099467,-4.309309 -8.234375,-5.582036 -0.01745,-0.0071 -0.03527,-0.01246 -0.05273,-0.01953 -1.394208,-0.562212 -2.849761,-1.00249 -4.361328,-1.296875 -0.05651,-0.0111 -0.113351,-0.0147 -0.169922,-0.02539 -1.436606,-0.269197 -2.915255,-0.42495 -4.43164,-0.427735 -0.01044,-1e-5 -0.02081,-0.002 -0.03125,-0.002 -0.0046,-3e-6 -0.0091,0 -0.01367,0 z" />
    <path
       id="rect336"
       style="opacity:1;fill:#ff671f;fill-opacity:1;stroke-width:1.15461"
       d="m 464,96 c -7.40958,0 -14.00859,3.329691 -18.4043,8.57422 -0.47968,0.43144 -0.96445,0.85312 -1.42773,1.3164 l -304.90235,304.9043 c -11.51719,11.5172 -13.222,28.35808 -3.82031,37.75977 9.40169,9.40169 26.24257,7.69688 37.75977,-3.82031 L 440,177.94141 V 472 c 0,13.296 10.704,24 24,24 13.296,0 24,-10.704 24,-24 V 120 c 0,-0.41749 -0.0416,-0.8242 -0.0625,-1.23633 0.30856,-6.31688 -1.6309,-12.31254 -6.00977,-16.6914 -4.37886,-4.378871 -10.37452,-6.318334 -16.6914,-6.00977 C 464.8242,96.041644 464.41749,96 464,96 Z" />
    <path
       id="path850"
       style="color:#000000;fill:#000080;-inkscape-stroke:none"
       d="m 253.99998,16 v 0.0508 c -7.19035,0.14791 -14.18751,1.07921 -20.90821,2.72851 l -0.008,-0.0273 -0.76953,0.20703 c -0.31739,0.0807 -0.63114,0.17004 -0.94726,0.25391 l -0.21485,0.0566 -1.93164,0.51758 0.008,0.0332 c -6.83673,1.98588 -13.36342,4.69588 -19.48047,8.07031 l -0.0176,-0.0293 -1.73047,1 -1.73242,1 0.0137,0.0234 c -6.04046,3.6683 -11.627,8.00243 -16.69922,12.86914 l -0.0508,-0.0508 -1.41406,1.41406 -1.41407,1.41407 0.0508,0.0508 c -4.86671,5.072216 -9.20084,10.658763 -12.86914,16.699218 l -0.0234,-0.01367 -1,1.732422 -1,1.730468 0.0293,0.01758 c -3.37443,6.117047 -6.08443,12.643737 -8.07031,19.480469 l -0.0332,-0.0078 -0.51758,1.93164 -0.0566,0.214844 c -0.0839,0.316122 -0.1732,0.629877 -0.25391,0.947266 l -0.20703,0.769531 0.0273,0.0078 c -1.6493,6.720696 -2.5806,13.717852 -2.72851,20.908202 H 160 v 2 2 h 0.0508 c 0.14789,7.18969 1.07949,14.18612 2.72851,20.90625 l -0.0273,0.008 0.20313,0.75781 c 0.0845,0.33242 0.17768,0.66116 0.26562,0.99219 l 0.0488,0.18164 0.51758,1.93164 0.0312,-0.008 c 1.98577,6.83702 4.69783,13.36316 8.07226,19.48047 l -0.0293,0.0176 1,1.73242 1,1.73047 0.0234,-0.0137 c 3.66824,6.0406 8.00245,11.62686 12.86914,16.69922 l -0.0508,0.0508 1.41407,1.41406 1.41406,1.41406 0.0508,-0.0508 c 5.07207,4.86671 10.65698,9.20276 16.69726,12.8711 l -0.0117,0.0215 1.73242,1 1.73047,1 0.0156,-0.0293 c 6.11772,3.37502 12.64482,6.08613 19.48242,8.07226 l -0.008,0.0312 1.93164,0.51758 0.0957,0.0254 c 0.37334,0.0996 0.74404,0.20563 1.11915,0.30078 l 0.71679,0.19141 0.006,-0.0254 c 6.72126,1.64958 13.71915,2.58059 20.91016,2.72851 v 0.0508 h 2 2 v -0.0508 c 7.19035,-0.14791 14.18751,-1.07921 20.9082,-2.72851 l 0.006,0.0254 0.70508,-0.18946 c 0.39017,-0.0989 0.7758,-0.20881 1.16406,-0.3125 0.0208,-0.006 0.0417,-0.0101 0.0625,-0.0156 l 1.93164,-0.51757 -0.008,-0.0312 c 6.83739,-1.98593 13.36484,-4.69559 19.48242,-8.07032 l 0.0156,0.0273 1.73242,-1 1.73047,-1 -0.0117,-0.0215 c 6.04045,-3.66829 11.627,-8.00243 16.69922,-12.86914 l 0.0488,0.0488 1.41407,-1.41406 1.41406,-1.41406 -0.0488,-0.0488 c 4.86671,-5.07222 9.20085,-10.65877 12.86914,-16.69922 l 0.0215,0.0117 1,-1.73047 1,-1.73242 -0.0274,-0.0156 c 3.37473,-6.11758 6.08439,-12.64503 8.07032,-19.48242 l 0.0312,0.008 0.51758,-1.93164 0.0156,-0.0625 c 0.10369,-0.38825 0.21358,-0.77389 0.3125,-1.16406 l 0.18945,-0.70508 -0.0254,-0.006 c 1.6493,-6.72069 2.58061,-13.71785 2.72852,-20.9082 h 0.0508 v -2 -2 h -0.0508 c -0.14793,-7.19101 -1.07894,-14.188897 -2.72852,-20.910157 l 0.0254,-0.0059 -0.1914,-0.716797 c -0.0952,-0.375103 -0.20122,-0.745806 -0.30079,-1.119141 l -0.0254,-0.0957 -0.51758,-1.93164 -0.0312,0.0078 c -1.98614,-6.837602 -4.69724,-13.3647 -8.07227,-19.482422 l 0.0293,-0.01563 -1,-1.730468 -1,-1.732422 -0.0215,0.01172 c -3.66834,-6.040289 -8.00439,-11.625197 -12.87109,-16.697264 l 0.0508,-0.0508 -1.41406,-1.41407 -1.41407,-1.41406 -0.0508,0.0508 c -5.07235,-4.86669 -10.65861,-9.2009 -16.69922,-12.86914 l 0.0137,-0.0234 -1.73047,-1 -1.73242,-1 -0.0176,0.0293 c -6.11731,-3.37443 -12.64345,-6.08649 -19.48047,-8.07226 l 0.008,-0.0312 -1.93164,-0.51758 -0.18164,-0.0488 c -0.33103,-0.0879 -0.65977,-0.18115 -0.99219,-0.26562 l -0.75781,-0.20313 -0.008,0.0273 c -6.72013,-1.64902 -13.71656,-2.58062 -20.90625,-2.72851 v -0.0508 h -2 z m 0,7.73047 V 96.812498 L 235.07615,26.18945 c 6.08491,-1.47566 12.4165,-2.31431 18.92383,-2.45898 z m 4,0 c 6.50651,0.14466 12.83773,0.9817 18.92187,2.45703 L 257.99998,96.804685 Z M 231.21287,27.22265 250.1367,97.845701 213.56834,34.50976 c 5.5439,-3.03888 11.45582,-5.48395 17.64453,-7.28711 z m 49.57226,0 c 6.18846,1.80297 12.10086,4.24654 17.64454,7.28516 l -36.56836,63.337891 z m -70.68164,9.28321 36.57032,63.339842 -51.69532,-51.695312 c 4.60006,-4.3972 9.65876,-8.31729 15.125,-11.64453 z m 91.79102,0 c 5.46572,3.327 10.52534,7.24772 15.125,11.64453 L 265.3242,99.845702 Z M 192.15037,50.978513 243.84568,102.67382 180.50584,66.103513 c 3.32724,-5.466239 7.24733,-10.524938 11.64453,-15.125 z m 127.69726,0 c 4.39726,4.600192 8.31729,9.658565 11.64454,15.125 L 268.15232,102.67382 Z M 178.50974,69.568357 241.84568,106.13671 171.22263,87.212888 c 1.80316,-6.188706 4.24823,-12.100631 7.28711,-17.644531 z m 154.97852,0 c 3.03877,5.5439 5.48403,11.455825 7.28711,17.644531 L 270.15232,106.13671 Z M 170.18943,91.076169 240.81248,110 h -73.08203 c 0.14467,-6.50733 0.98332,-12.838923 2.45898,-18.923831 z m 171.61914,0 c 1.4756,6.084908 2.31431,12.416501 2.45899,18.923831 H 271.18552 Z M 167.73045,114 h 73.07422 l -70.61719,18.92187 C 168.71215,126.83773 167.87511,120.5065 167.73045,114 Z m 103.46289,0 h 73.07422 c -0.14466,6.5065 -0.98178,12.83773 -2.45704,18.92187 z m -29.34766,3.86132 -63.33789,36.56836 c -3.03862,-5.54368 -5.48219,-11.45607 -7.28516,-17.64453 z m 28.30664,0 70.62305,18.92383 c -1.80289,6.18846 -4.24665,12.10085 -7.28516,17.64453 z m -26.30664,3.46289 -51.69531,51.69532 c -4.39681,-4.59966 -8.31753,-9.65928 -11.64453,-15.125 z m 24.30664,0 63.33985,36.57032 c -3.32701,5.46593 -7.2457,10.52714 -11.64258,15.12695 z m -21.47851,2.82813 -36.57032,63.33984 c -5.46643,-3.32724 -10.52481,-7.24727 -15.125,-11.64453 z m 18.65039,0 51.69726,51.69727 c -4.5998,4.39688 -9.66101,8.31556 -15.12695,11.64257 z m -15.1875,2 -18.92383,70.62305 c -6.18871,-1.80308 -12.10063,-4.24834 -17.64453,-7.28711 z m 11.72461,0 36.56836,63.33789 c -5.54368,3.0385 -11.45608,5.48227 -17.64454,7.28516 z m -7.86133,1.0332 v 73.08203 c -6.50733,-0.14467 -12.83892,-0.98338 -18.92383,-2.45898 z m 4,0.008 18.92187,70.61719 c -6.08414,1.47526 -12.41536,2.31238 -18.92187,2.45703 z" />
  </g>
  <metadata
     id="metadata223">
    <rdf:RDF>
      <cc:License
         rdf:about="http://creativecommons.org/licenses/by-sa/4.0/">
        <cc:permits
           rdf:resource="http://creativecommons.org/ns#Reproduction" />
        <cc:permits
           rdf:resource="http://creativecommons.org/ns#Distribution" />
        <cc:requires
           rdf:resource="http://creativecommons.org/ns#Notice" />
        <cc:requires
           rdf:resource="http://creativecommons.org/ns#Attribution" />
        <cc:permits
           rdf:resource="http://creativecommons.org/ns#DerivativeWorks" />
        <cc:requires
           rdf:resource="http://creativecommons.org/ns#ShareAlike" />
      </cc:License>
      <cc:Work
         rdf:about="">
        <cc:license
           rdf:resource="http://creativecommons.org/licenses/by-sa/4.0/" />
      </cc:Work>
    </rdf:RDF>
  </metadata>
</svg>
