<?xml version="1.0" encoding="UTF-8" standalone="no"?>
<!-- Created with Inkscape (http://www.inkscape.org/) -->

<svg
   width="512"
   height="512"
   viewBox="0 0 512 512"
   version="1.1"
   id="svg5"
   inkscape:version="1.1.2 (0a00cf5339, 2022-02-04)"
   sodipodi:docname="distributor-logo-mamolinux.svg"
   xmlns:inkscape="http://www.inkscape.org/namespaces/inkscape"
   xmlns:sodipodi="http://sodipodi.sourceforge.net/DTD/sodipodi-0.dtd"
   xmlns="http://www.w3.org/2000/svg"
   xmlns:svg="http://www.w3.org/2000/svg"
   xmlns:rdf="http://www.w3.org/1999/02/22-rdf-syntax-ns#"
   xmlns:cc="http://creativecommons.org/ns#">
  <sodipodi:namedview
     id="namedview7"
     pagecolor="#ffffff"
     bordercolor="#666666"
     borderopacity="1.0"
     inkscape:showpageshadow="2"
     inkscape:pageopacity="0.0"
     inkscape:pagecheckerboard="0"
     inkscape:deskcolor="#d1d1d1"
     inkscape:document-units="px"
     showgrid="false"
     inkscape:zoom="1.3523417"
     inkscape:cx="417.79382"
     inkscape:cy="272.12057"
     inkscape:window-width="1920"
     inkscape:window-height="1020"
     inkscape:window-x="0"
     inkscape:window-y="32"
     inkscape:window-maximized="1"
     inkscape:current-layer="layer1"
     inkscape:pageshadow="2" />
  <defs
     id="defs2" />
  <g
     inkscape:label="Layer 1"
     inkscape:groupmode="layer"
     id="layer1">
    <path
       id="rect225"
       style="opacity:1;fill:#046a38;fill-opacity:1;stroke-width:1.15461"
       d="m 48,96 c -1.558067,0 -3.076954,0.160487 -4.550781,0.441406 -0.0025,4.79e-4 -0.0053,-4.79e-4 -0.0078,0 -9.623365,1.837451 -17.16255,9.376634 -19,19.000004 -4.91e-4,0.003 4.91e-4,0.005 0,0.008 C 24.160487,116.92305 24,118.44193 24,120 V 120.0215 472 c 0,13.296 10.704,24 24,24 13.296,0 24,-10.704 24,-24 V 177.94141 L 343.5918,449.5332 c 9.40169,9.40169 24.53971,9.40169 33.9414,0 9.40169,-9.40169 9.40169,-24.53971 0,-33.9414 L 65.294922,103.35352 c -2.30538,-2.39523 -5.099467,-4.309309 -8.234375,-5.582036 -0.01745,-0.0071 -0.03527,-0.01246 -0.05273,-0.01953 -1.394208,-0.562212 -2.849761,-1.00249 -4.361328,-1.296875 -0.05651,-0.0111 -0.113351,-0.0147 -0.169922,-0.02539 -1.436606,-0.269197 -2.915255,-0.42495 -4.43164,-0.427735 -0.01044,-1e-5 -0.02081,-0.002 -0.03125,-0.002 -0.0046,-3e-6 -0.0091,0 -0.01367,0 z" />
    <path
       id="rect336"
       style="opacity:1;fill:#ff671f;fill-opacity:1;stroke-width:1.15461"
       d="m 464,96 c -7.40958,0 -14.00859,3.329691 -18.4043,8.57422 -0.47968,0.43144 -0.96445,0.85312 -1.42773,1.3164 l -304.90235,304.9043 c -11.51719,11.5172 -13.222,28.35808 -3.82031,37.75977 9.40169,9.40169 26.24257,7.69688 37.75977,-3.82031 L 440,177.94141 V 472 c 0,13.296 10.704,24 24,24 13.296,0 24,-10.704 24,-24 V 120 c 0,-0.41749 -0.0416,-0.8242 -0.0625,-1.23633 0.30856,-6.31688 -1.6309,-12.31254 -6.00977,-16.6914 -4.37886,-4.378871 -10.37452,-6.318334 -16.6914,-6.00977 C 464.8242,96.041644 464.41749,96 464,96 Z" />
    <circle
       style="opacity:1;fill:#06038d;stroke:none;stroke-width:12;stroke-opacity:1;fill-opacity:1"
       id="path168"
       cx="256"
       cy="112"
       r="96" />
    <path
       id="path962"
       style="opacity:1;fill:#ffffff;stroke:none;stroke-width:12;stroke-opacity:1;fill-opacity:1"
       d="m 256,16.000049 a 96,96 0 0 0 -0.69336,0.0488 96.137472,96 0 0 1 0.79102,-0.0469 96,96 0 0 0 -0.0977,-0.002 z m 0.20312,0.006 a 96.137472,96 0 0 1 13.98829,1.05078 96,96 0 0 0 -13.98829,-1.05078 z m -12.04687,0.83984 a 96,96 0 0 0 -6.08984,1.06055 96.137472,96 0 0 1 6.08984,-1.06055 z m 26.875,0.35743 a 96.137472,96 0 0 1 12.90234,2.95117 96,96 0 0 0 -12.90234,-2.95117 z m -38.40234,1.88661 a 96,96 0 0 0 -7.16016,2.09961 96.137472,96 0 0 1 7.16016,-2.09961 z m 52.86718,1.58204 a 96.137472,96 0 0 1 11.42188,4.48828 96,96 0 0 0 -11.42188,-4.48828 z m -63.41992,1.78125 a 96,96 0 0 0 -61.12305,76.22265 96.137472,96 0 0 1 41.36133,-66.05469 l 6.87891,11.89453 a 82.403548,82.285715 0 0 0 -35.45898,67.484341 82.403548,82.285715 0 0 0 15.30859,47.66602 l 52.93164,-85.521491 15.0957,24.38867 -54.00586,93.408211 A 96.137472,96 0 0 1 160,112.00005 a 96,96 0 0 0 96,96 96,96 0 0 0 0.0703,-0.006 96.137472,96 0 0 1 -41.04687,-9.31055 L 278.5,88.900439 332.49805,142.23638 a 82.403548,82.285715 0 0 0 5.5039,-23.37891 h 13.50782 A 96,96 0 0 0 352,112.00005 a 96,96 0 0 0 -0.27344,-6.85742 h -13.50195 a 82.403548,82.285715 0 0 0 -82.08789,-75.427741 82.403548,82.285715 0 0 0 -35.0293,7.98242 l -6.90039,-11.93554 a 96.137472,96 0 0 1 7.86914,-3.3086 z m 77.23438,3.90429 a 96.137472,96 0 0 1 9.55859,5.52735 96,96 0 0 0 -9.55859,-5.52735 z m 12.72851,7.72656 a 96.137472,96 0 0 1 7.68946,6.14649 96,96 0 0 0 -7.68946,-6.14649 z m 11.31836,9.53321 a 96.137472,96 0 0 1 5.83594,6.30468 96,96 0 0 0 -5.83594,-6.30468 z m 9.7168,11.15429 a 96.137472,96 0 0 1 4.125,6.07032 96,96 0 0 0 -4.125,-6.07032 z m 8.33594,13.45704 a 96.137472,96 0 0 1 2.19531,4.58007 96,96 0 0 0 -2.19531,-4.58007 z m 5.87695,14.14843 a 96.137472,96 0 0 1 0.99219,3.24805 96,96 0 0 0 -0.99219,-3.24805 z m 3.47656,14.40235 a 96.137472,96 0 0 1 0.34375,2.31836 96,96 0 0 0 -0.34375,-2.31836 z m 0.49024,25.669921 a 96.137472,96 0 0 1 -0.99024,6.70508 96,96 0 0 0 0.99024,-6.70508 z m -2.51758,13.72266 a 96.137472,96 0 0 1 -2.01563,6.60351 96,96 0 0 0 2.01563,-6.60351 z m -4.47656,13.19921 a 96.137472,96 0 0 1 -3.07227,6.42188 96,96 0 0 0 3.07227,-6.42188 z m -6.33204,12.39063 a 96.137472,96 0 0 1 -4.18359,6.16992 96,96 0 0 0 4.18359,-6.16992 z m -8.06054,11.34961 a 96.137472,96 0 0 1 -5.34961,5.79101 96,96 0 0 0 5.34961,-5.79101 z m -9.63477,10.07617 a 96.137472,96 0 0 1 -6.52539,5.22656 96,96 0 0 0 6.52539,-5.22656 z m -11.0293,8.59961 a 96.137472,96 0 0 1 -7.66992,4.45117 96,96 0 0 0 7.66992,-4.45117 z m -12.19531,6.92187 a 96.137472,96 0 0 1 -8.88086,3.50586 96,96 0 0 0 8.88086,-3.50586 z m -13.0957,5.08008 a 96.137472,96 0 0 1 -10.18164,2.34961 96,96 0 0 0 10.18164,-2.34961 z m -13.74805,3.125 a 96.137472,96 0 0 1 -12.375,0.95899 96,96 0 0 0 12.375,-0.95899 z" />
  </g>
  <metadata
     id="metadata223">
    <rdf:RDF>
      <cc:License
         rdf:about="http://creativecommons.org/licenses/by-sa/4.0/">
        <cc:permits
           rdf:resource="http://creativecommons.org/ns#Reproduction" />
        <cc:permits
           rdf:resource="http://creativecommons.org/ns#Distribution" />
        <cc:requires
           rdf:resource="http://creativecommons.org/ns#Notice" />
        <cc:requires
           rdf:resource="http://creativecommons.org/ns#Attribution" />
        <cc:permits
           rdf:resource="http://creativecommons.org/ns#DerivativeWorks" />
        <cc:requires
           rdf:resource="http://creativecommons.org/ns#ShareAlike" />
      </cc:License>
      <cc:Work
         rdf:about="">
        <cc:license
           rdf:resource="http://creativecommons.org/licenses/by-sa/4.0/" />
      </cc:Work>
    </rdf:RDF>
  </metadata>
</svg>
